<svg width="77" height="68" viewBox="0 0 77 68" fill="none" xmlns="http://www.w3.org/2000/svg">
    <path fill-rule="evenodd" clip-rule="evenodd" d="M24.5038 43.9118C26.6787 43.9118 28.3473 43.1059 29.5119 41.4995C30.6769 39.8877 31.2592 37.6072 31.2592 34.6511C31.2592 31.8244 30.6669 29.6247 29.4799 28.0472C28.2929 26.4697 26.59 25.6839 24.3735 25.6839C22.2625 25.6839 20.5767 26.5045 19.3134 28.1452C18.0505 29.7888 17.419 32.0004 17.419 34.7809C17.419 37.3869 18.0724 39.5619 19.3802 41.3035C20.6874 43.0422 22.3956 43.9118 24.5038 43.9118ZM42.595 34.9103C42.595 38.2855 41.9908 41.3106 40.7842 43.9927C39.5724 46.6771 37.8327 48.7836 35.5599 50.3168C33.2866 51.8501 30.6669 52.6169 27.7011 52.6169C24.0518 52.6169 20.6827 51.1817 17.5837 48.3131V59.3797H24.4374V67.3327H0.710938V59.3797H6.5767V25.3556H1.63495V17.2751H17.5837V21.5784C20.6359 18.4016 24.0518 16.8146 27.8314 16.8146C30.8859 16.8146 33.5272 17.6081 35.759 19.1951C37.9874 20.785 39.6831 22.9452 40.8482 25.6839C42.0127 28.4197 42.595 31.4985 42.595 34.9103Z" fill="#FFE600"/>
    <path fill-rule="evenodd" clip-rule="evenodd" d="M76.3988 5.52544L68.3034 11.7663C67.9042 10.5195 67.4528 9.579 66.949 8.94249C66.4501 8.30789 65.8519 7.98964 65.1607 7.98964C64.158 7.98964 63.4174 8.3959 62.9388 9.20414C62.4574 10.0152 62.2181 11.274 62.2181 12.9813V16.5301H68.438V24.6106H62.2181V43.0983H68.7722V51.0494H45.8998V43.0983H51.0473V24.6106H46.3338V16.5301H51.0473V12.9813C51.0473 9.21651 52.202 6.22093 54.5091 3.99935C56.8158 1.77776 60.1779 0.666016 64.592 0.666016C70.1217 0.666016 74.0593 2.28487 76.3988 5.52544Z" fill="#FFE600"/>
</svg>