<svg width="239" height="56" viewBox="0 0 239 56" fill="none" xmlns="http://www.w3.org/2000/svg">
<g id="Logo/PF Black">
<path d="M70.0224 26.4957C70.0224 24.8656 69.2135 23.9448 67.8198 23.9448H65.0823V35.144H68.0936C69.4251 35.144 70.0224 34.3227 70.0224 32.8046V26.4957ZM70.0224 11.1154C70.0224 9.59732 69.3753 8.78848 68.0314 8.78848H65.0823V19.5397H67.7701C69.1638 19.5397 69.9726 18.7309 69.9726 17.051L70.0224 11.1154ZM68.778 40.0219H59.4453V3.83594H68.6785C72.6355 3.83594 75.5349 5.95135 75.5349 10.8417V16.18C75.5349 18.8927 74.5145 20.8588 72.0009 21.6178C74.6265 22.4889 75.6469 24.3803 75.6469 27.0432V33.0784C75.6469 38.0558 72.6977 40.0841 68.778 40.0841" fill="white"/>
<path d="M79.0312 40.0219V3.83594H84.718V34.808H92.9183V40.0219H79.0312Z" fill="white"/>
<path d="M104.032 13.3428L101.942 28.1258H105.812L104.032 13.3428ZM107.355 40.0219L106.446 32.9664H101.245L100.162 40.0219H94.9609L100.921 3.83594H107.143L113.153 40.0219H107.355Z" fill="white"/>
<path d="M124.477 40.6763C123.322 40.7384 122.167 40.5578 121.086 40.146C120.006 39.7342 119.023 39.1004 118.203 38.2855C117.382 37.4706 116.741 36.4927 116.321 35.4149C115.902 34.3371 115.713 33.1833 115.767 32.028V11.8196C115.715 10.6653 115.905 9.51293 116.325 8.43662C116.746 7.3603 117.387 6.38395 118.207 5.57043C119.028 4.75691 120.01 4.12425 121.09 3.7132C122.169 3.30214 123.323 3.1218 124.477 3.18379C129.728 3.18379 132.578 6.65555 132.578 11.4961V16.71H127.464V11.3841C127.464 10.602 127.153 9.85183 126.6 9.29877C126.047 8.7457 125.297 8.43499 124.515 8.43499C123.732 8.43499 122.982 8.7457 122.429 9.29877C121.876 9.85183 121.566 10.602 121.566 11.3841V32.5382C121.57 32.9255 121.65 33.3082 121.802 33.6644C121.954 34.0207 122.175 34.3435 122.451 34.6145C122.728 34.8854 123.055 35.0992 123.415 35.2436C123.774 35.3881 124.158 35.4603 124.546 35.4562C124.933 35.4521 125.316 35.3718 125.672 35.2198C126.028 35.0679 126.351 34.8472 126.622 34.5705C126.893 34.2937 127.107 33.9663 127.251 33.6069C127.396 33.2476 127.468 32.8633 127.464 32.476V27.0879H132.516V32.3516C132.516 37.1797 129.666 40.6639 124.415 40.6639" fill="white"/>
<path d="M147.312 40.0219L143.342 24.9776L141.413 30.1915V40.0219H135.727V3.83594H141.413V20.8463L147.312 3.83594H152.948L147.212 19.2162L153.16 40.0219H147.312Z" fill="white"/>
<path d="M168.715 40.6804C167.566 40.7318 166.419 40.5432 165.347 40.1266C164.276 39.71 163.302 39.0745 162.49 38.2608C161.677 37.4471 161.043 36.4729 160.628 35.4005C160.213 34.3281 160.026 33.1809 160.079 32.0322V11.8238C160.028 10.6761 160.216 9.53025 160.632 8.45931C161.048 7.38836 161.682 6.41574 162.495 5.60337C163.307 4.79101 164.28 4.15671 165.35 3.74084C166.421 3.32498 167.567 3.13668 168.715 3.18792C173.979 3.18792 176.816 6.65968 176.816 11.5002V16.7141H171.764V11.3882C171.764 10.6061 171.453 9.85597 170.9 9.3029C170.347 8.74983 169.597 8.43912 168.815 8.43912C168.032 8.43912 167.282 8.74983 166.729 9.3029C166.176 9.85597 165.865 10.6061 165.865 11.3882V32.5423C165.874 33.3245 166.192 34.0713 166.751 34.6186C167.31 35.1658 168.063 35.4686 168.846 35.4604C169.628 35.4521 170.375 35.1335 170.922 34.5746C171.469 34.0157 171.772 33.2623 171.764 32.4801V27.0921H176.803V32.3557C176.803 37.1838 173.966 40.668 168.703 40.668" fill="white"/>
<path d="M187.118 13.3428L185.028 28.1258H188.885L187.118 13.3428ZM190.428 40.0219L189.52 32.9664H184.331L183.248 40.0219H178.047L184.007 3.83594H190.229L196.177 40.0219H190.428Z" fill="white"/>
<path d="M208.994 11.1154C208.994 9.59732 208.409 8.78848 207.066 8.78848H204.116V20.249H206.854C208.248 20.249 208.994 19.4278 208.994 17.7603V11.1154ZM212.267 40.1837C210.077 40.1837 209.218 38.0185 209.218 35.2062V27.3792C209.218 25.9109 208.459 24.7163 206.904 24.7163H204.116V40.0219H198.43V3.83594H207.551C211.52 3.83594 214.581 6.06334 214.581 10.9537V17.4243C214.669 18.5323 214.384 19.6378 213.77 20.5647C213.157 21.4916 212.251 22.1865 211.197 22.5386C212.236 22.8834 213.136 23.5538 213.763 24.4504C214.391 25.347 214.713 26.4221 214.681 27.5161V34.8454C214.596 36.1778 214.979 37.498 215.764 38.5784V40.2085L212.267 40.1837Z" fill="white"/>
<path d="M229.535 12.4469C229.535 10.1697 228.677 9.02491 226.698 9.02491H224.023V34.92H226.648C228.627 34.92 229.485 33.6757 229.485 31.498L229.535 12.4469ZM227.046 40.0468H218.336V3.83594H227.046C232.198 3.83594 235.197 7.09616 235.197 12.5464V31.5976C235.197 37.0354 232.198 40.0219 227.046 40.0219" fill="white"/>
<path d="M17.3605 34.2787C18.0664 34.314 18.77 34.172 19.4069 33.8655C20.0437 33.559 20.5937 33.0979 21.0065 32.5241C21.9249 31.0331 22.3595 29.2945 22.2509 27.5467C22.3524 25.838 21.8936 24.1429 20.9443 22.7186C20.5135 22.1442 19.947 21.6855 19.2956 21.3836C18.6441 21.0818 17.9279 20.9462 17.2112 20.9889C16.4882 20.9569 15.7685 21.1049 15.1169 21.4199C14.4653 21.7348 13.9022 22.2068 13.4781 22.7933C12.4912 24.2078 12.0051 25.9115 12.0969 27.6338C12.078 29.3309 12.6156 30.9874 13.6275 32.3499C14.0466 32.9483 14.6061 33.4348 15.2569 33.7667C15.9077 34.0987 16.63 34.2659 17.3605 34.2538V34.2787ZM30.5383 27.6836C30.5708 29.9626 30.1213 32.2228 29.2193 34.316C28.4131 36.1846 27.0926 37.7856 25.4115 38.9326C23.7201 40.0645 21.7224 40.6508 19.6875 40.6125C16.9179 40.5636 14.276 39.439 12.3209 37.4767V45.565H17.2983V51.3886H0.0390625V45.5899H4.30721V20.7027H0.711016V14.8169H12.3209V17.9651C13.2538 16.8961 14.3999 16.0339 15.6857 15.4339C16.9714 14.8338 18.3684 14.5093 19.787 14.4809C21.8423 14.4192 23.8641 15.0118 25.5609 16.1733C27.2266 17.3708 28.5205 19.0141 29.2939 20.9143C30.1587 23.0557 30.5819 25.3497 30.5383 27.6587" fill="#FFE600"/>
<path d="M54.7942 6.78195L48.9209 11.3487C48.721 10.6086 48.3925 9.90937 47.9503 9.28311C47.8113 9.07824 47.6264 8.90859 47.4104 8.78763C47.1944 8.66667 46.9532 8.59772 46.7059 8.58627C46.3843 8.56934 46.0644 8.64321 45.7827 8.79944C45.5011 8.95567 45.269 9.18795 45.1131 9.46976C44.7089 10.3318 44.5291 11.2821 44.5905 12.2322V14.8205H49.0577V20.7312H44.5532V34.2325H49.2568V40.0436H32.8438V34.2325H36.5768V20.7312H33.1548V14.8205H36.5395V12.2322C36.4771 11.0264 36.6662 9.8207 37.0946 8.69178C37.523 7.56286 38.1815 6.53534 39.0282 5.67447C40.0071 4.79953 41.1508 4.12875 42.3922 3.7014C43.6337 3.27406 44.9479 3.09875 46.2579 3.18575C50.2233 3.18575 53.048 4.36789 54.732 6.73217" fill="#FFE600"/>
</g>
</svg>