<svg width="49" height="48" viewBox="0 0 49 48" fill="none" xmlns="http://www.w3.org/2000/svg">
<path fill-rule="evenodd" clip-rule="evenodd" d="M44.7477 20.6445L45.0217 23.2552V23.2453L48.0156 24.3663L47.5313 28.8453L44.4395 29.4254C44.2145 30.2809 43.9406 31.1216 43.6128 31.9427L45.7995 34.1502L43.5443 38.0441L40.4868 37.3066C39.9389 37.9949 39.347 38.6537 38.7111 39.2732L39.8166 42.1838L36.1819 44.8191L33.687 42.8967C32.9141 43.2949 32.1069 43.6538 31.2704 43.9587L31.0992 47.0757L26.7111 48.0001L25.2141 45.2271C24.3287 45.2812 23.4481 45.2665 22.5725 45.2075L21.1587 47.9804L16.7804 47.0315L16.5309 43.8751C15.709 43.5604 14.9068 43.1966 14.1289 42.7836L11.7123 44.7404L8.09715 42.0806L9.14403 39.1011C8.51786 38.4817 7.93082 37.8228 7.38292 37.1198L4.38904 37.9212L2.1632 34.0125L4.33034 31.7165C4.17869 31.3232 4.03682 30.925 3.90474 30.5169C3.76287 30.0744 3.64546 29.6319 3.53295 29.1894L0.470578 28.6978L0.015625 24.2139L2.91656 23.0044C2.96059 22.1145 3.05843 21.2345 3.21008 20.3643L0.612444 18.6631L2.01155 14.3858L5.15708 14.4693C5.3283 14.1252 5.51419 13.7859 5.70498 13.4516C5.67073 13.4615 5.81749 13.2058 5.85663 13.191C6.0572 12.8518 6.26755 12.5126 6.48769 12.1832L4.79996 9.56265L7.80852 6.22432L10.6459 7.5862C11.3258 7.02572 12.0401 6.50457 12.7934 6.03258L12.314 2.95975L16.4135 1.14063L18.4583 3.54482C19.3193 3.30882 20.1803 3.13183 21.0413 3.00891L21.8485 0L26.3295 0.0147496L27.2149 3.03841C28.0906 3.17116 28.9516 3.3629 29.7979 3.60381L31.6568 1.31271L35.7074 3.13674L35.3062 6.25874L37.4294 7.82219L40.1835 6.41607L43.1823 9.74947L41.5435 12.4585L42.8448 14.7397L45.9022 14.5775L47.3258 18.8598L44.7477 20.6445ZM23.9374 41.3969C33.4132 41.3969 41.0984 33.678 41.0984 24.1498V24.1448C41.0984 14.6215 33.4181 6.89766 23.9374 6.89766C14.4568 6.89766 6.77154 14.6264 6.77154 24.1498C6.77154 33.6731 14.4617 41.3969 23.9374 41.3969Z" fill="white"/>
<path d="M19.7381 22.0825C18.4466 22.0825 17.7128 23.1101 17.7128 24.8554C17.7128 26.6008 18.5151 27.6726 19.7821 27.6726C21.0491 27.6726 21.8074 26.6008 21.8074 24.8112C21.8074 23.0216 21.0295 22.0825 19.7381 22.0825ZM19.7381 34.7868H12.5469V32.3482H14.3276V21.9006H12.5469V19.462H17.7324V20.8042C18.6667 19.7521 19.6011 19.3047 20.7801 19.3047C23.319 19.3047 25.2562 21.6745 25.2562 24.8063C25.2562 27.9381 23.3875 30.2882 20.736 30.2882C19.5766 30.2882 18.6863 29.9096 17.7324 28.9706V32.3482H19.7381V34.7868Z" fill="white"/>
<path d="M33.2973 30.0435H26.8203V27.6049H28.2683V21.9017H26.8203V19.4631H28.2683V18.5683C28.2683 16.6017 29.3592 14.5859 32.3629 14.5859C33.9675 14.5859 35.122 15.0776 35.8558 16.0609L33.2973 17.9833C33.0527 17.1573 32.9206 16.8426 32.451 16.8426C31.9373 16.8426 31.6731 17.3146 31.6731 18.3176V19.4582H33.2973V21.8968H31.6731V27.6H33.2973V30.0386V30.0435Z" fill="white"/>
<path d="M40.478 39.4714H40.703C40.8204 39.4714 40.9427 39.496 40.9427 39.6385C40.9427 39.8106 40.8057 39.8205 40.659 39.8205H40.4828V39.4714H40.478ZM40.3067 40.4252H40.478V39.9581H40.659L40.9525 40.4252H41.1335L40.8204 39.9434C40.9818 39.9237 41.1041 39.845 41.1041 39.6484C41.1041 39.437 40.9818 39.3386 40.7226 39.3386H40.3018V40.4301L40.3067 40.4252ZM39.7344 39.8745C39.7344 40.4104 40.16 40.8136 40.6687 40.8136C41.1775 40.8136 41.5982 40.4104 41.5982 39.8745C41.5982 39.3386 41.1726 38.9453 40.6687 38.9453C40.1649 38.9453 39.7344 39.3485 39.7344 39.8745ZM39.9056 39.8745C39.9056 39.4271 40.2382 39.083 40.6736 39.083C41.109 39.083 41.4368 39.4271 41.4368 39.8745C41.4368 40.3219 41.1041 40.6759 40.6736 40.6759C40.2431 40.6759 39.9056 40.3318 39.9056 39.8745Z" fill="white"/>
</svg>
