<svg xmlns="http://www.w3.org/2000/svg" width="25" height="24" fill="none">
  <path fill="currentcolor" fill-rule="evenodd" d="M7 8a2.5 2.5 0 1 1 5 0 2.5 2.5 0 0 1-5 0Zm2.5-4a4 4 0 1 0 0 8 4 4 0 0 0 0-8ZM4 19.25c0-2.536 2.37-4.75 5.5-4.75s5.5 2.214 5.5 4.75a.75.75 0 0 0 1.5 0c0-3.539-3.227-6.25-7-6.25s-7 2.711-7 6.25a.75.75 0 0 0 1.5 0ZM17.25 7.5a2 2 0 1 0 0 4 2 2 0 0 0 0-4Zm-3.5 2a3.5 3.5 0 1 1 7 0 3.5 3.5 0 0 1-7 0Zm3.5 4.5a.75.75 0 0 0 0 1.5A3.75 3.75 0 0 1 21 19.25a.75.75 0 0 0 1.5 0c0-2.9-2.35-5.25-5.25-5.25Z" clip-rule="evenodd"/>
</svg>