<svg xmlns="http://www.w3.org/2000/svg" width="24" height="24" fill="none"><path fill="currentcolor" fill-rule="evenodd" d="M20.333 2.75a.75.75 0 0 1-.75.75c-.806 0-1.36.2-1.752.46-.395.264-.668.62-.858 1a3.861 3.861 0 0 0-.39 1.523v.019a.75.75 0 0 1-1.5-.002h.75-.75v-.023l.002-.044a5.36 5.36 0 0 1 .067-.642c.067-.4.202-.947.48-1.501A4.04 4.04 0 0 1 17 2.712C17.663 2.269 18.515 2 19.583 2a.75.75 0 0 1 .75.75ZM3.581 11.164l-.023.008c-.052.02-.12.046-.196.08-.145.066-.365.18-.586.362a2.117 2.117 0 0 0-.67.95 2.033 2.033 0 0 0 .084 1.501l.003.006c.2.442.535.817.998 1.036.327.155.643.198.902.195l1.19 6.094a.75.75 0 0 0 .736.606h12.327a.75.75 0 0 0 .742-.64l1.251-8.406C21.563 11.202 22 8.97 22 7.056 22 5.802 20.967 5 19.92 5s-2.082.801-2.082 2.056c0 .112-.002.222-.006.33-.078 2.438-1.04 3.936-2.658 4.3-.601.136-.986.143-1.236.114a1.583 1.583 0 0 1-.594-.188c-.198-.105-.388-.235-.71-.46v-.001l-.156-.108a9.7 9.7 0 0 0-1.345-.81 6.75 6.75 0 0 0-.181-.084c-.998-.447-2.113-.395-2.908-.29-.87.114-1.76.352-2.524.596-.751.24-1.436.503-1.938.709Zm14.979 3.558a7.203 7.203 0 0 1-2.476 1.05c-1.99.448-3.43.205-4.677-.454-.448-.237-.845-.515-1.137-.72l-.023-.016a43.458 43.458 0 0 0-.138-.096l.673-.968-.673.968c-.325-.226-.564-.38-.821-.499a.95.95 0 0 0-.109-.011 3.278 3.278 0 0 0-.595.033c-.528.07-1.16.23-1.805.436-.447.143-.873.298-1.239.44l1.097 5.617H17.7l.86-5.78ZM8.233 11.346c-.744.099-1.539.309-2.258.538l-.012.004a24.092 24.092 0 0 0-1.855.68l-.015.006c-.027.01-.088.031-.16.068-.228.115-.571.37-.374.809.224.494.698.35.895.262.056-.024.09-.044.09-.044l.014-.006a22.888 22.888 0 0 1 1.765-.647l.012-.004c.685-.218 1.405-.405 2.053-.49h.006c.658-.087 1.154-.056 1.459.075l.015.007c.397.177.733.397 1.08.638l.018.012.132.093.01.007c.3.21.625.438.983.629l.016.008c.898.474 1.966.696 3.647.317l.01-.002c3.24-.735 4.529-3.627 4.713-6.507.015-.248.023-.496.023-.743 0-.328-.26-.556-.581-.556a.592.592 0 0 0-.445.189.54.54 0 0 0-.137.367c0 .237-.008.471-.023.703-.17 2.601-1.308 4.827-3.81 5.39l-.01.003c-1.427.32-2.21.121-2.835-.205l-.017-.009a8.13 8.13 0 0 1-.858-.55l-.01-.007-.135-.094-.018-.013a7.866 7.866 0 0 0-1.269-.75l-.015-.006c-.503-.226-1.12-.261-1.73-.212a7.46 7.46 0 0 0-.368.04h-.006Z" clip-rule="evenodd"/></svg>