<svg xmlns="http://www.w3.org/2000/svg" width="25" height="24" fill="none">
  <path fill="currentcolor" fill-rule="evenodd" d="M17.5 4.5h-10A.5.5 0 0 0 7 5v4.063A2 2 0 0 1 8.5 11h8A2 2 0 0 1 18 9.063V5a.5.5 0 0 0-.5-.5Zm-1 8h-8V15h8v-2.5Zm-11-2h1a.5.5 0 0 1 .5.5v5.5h11V11a.5.5 0 0 1 .5-.5h2a.5.5 0 0 1 .5.5v8a.5.5 0 0 1-.5.5h-16A.5.5 0 0 1 4 19v-8a.5.5 0 0 1 .5-.5h1Zm14-5.5v4h1a2 2 0 0 1 2 2v8a2 2 0 0 1-2 2h-16a2 2 0 0 1-2-2v-8a2 2 0 0 1 2-2h1V5a2 2 0 0 1 2-2h10a2 2 0 0 1 2 2Z" clip-rule="evenodd"/>
</svg>