<svg xmlns="http://www.w3.org/2000/svg" width="25" height="24" fill="none"><path fill="currentcolor" fill-rule="evenodd" d="M14.885 9.617a1.25 1.25 0 1 0-1.77 1.766 1.25 1.25 0 0 0 1.77-1.766Z" clip-rule="evenodd"/><path fill="currentcolor" fill-rule="evenodd" d="M12.064 8.648a.25.25 0 0 0-.176.074l-3.8 3.8a.25.25 0 0 0 0 .354l3.535 3.535a.25.25 0 0 0 .354 0l3.8-3.8a.25.25 0 0 0 .073-.177V8.898a.25.25 0 0 0-.25-.25h-3.536Zm-1.237-.987a1.75 1.75 0 0 1 1.237-.513H15.6c.966 0 1.75.784 1.75 1.75v3.536c0 .464-.184.91-.513 1.237l-3.8 3.8a1.75 1.75 0 0 1-2.475 0l-3.535-3.535a1.75 1.75 0 0 1 0-2.475l3.8-3.8Z" clip-rule="evenodd"/><path fill="currentcolor" fill-rule="evenodd" d="M10.533 2.664a3.228 3.228 0 0 1 3.921 0L15.9 3.766l1.808.241a3.23 3.23 0 0 1 2.778 2.774l.24 1.803 1.111 1.452a3.231 3.231 0 0 1 0 3.92v.002l-1.112 1.448-.24 1.809a3.232 3.232 0 0 1-2.776 2.776l-1.804.239-1.448 1.106a3.229 3.229 0 0 1-3.922 0l-1.446-1.102-1.809-.241h-.002a3.229 3.229 0 0 1-2.764-2.779l-.239-1.802-1.111-1.45a3.232 3.232 0 0 1-.001-3.922L4.266 8.59l.24-1.81A3.232 3.232 0 0 1 7.28 4.005l1.805-.239 1.448-1.102ZM4.355 13.05l1.233 1.608a.75.75 0 0 1 .148.358L6 17.017a1.733 1.733 0 0 0 1.479 1.489h.001l2.003.267a.75.75 0 0 1 .356.147l1.606 1.224a1.727 1.727 0 0 0 2.1 0l1.607-1.228a.75.75 0 0 1 .357-.147l2.001-.265a1.728 1.728 0 0 0 1.487-1.487l.267-2.008a.75.75 0 0 1 .148-.357l1.232-1.606a1.733 1.733 0 0 0 0-2.1l-1.232-1.609a.75.75 0 0 1-.148-.357l-.265-2a1.733 1.733 0 0 0-1.488-1.486l-2.007-.267a.75.75 0 0 1-.356-.147l-1.606-1.224a1.727 1.727 0 0 0-2.1 0L9.835 5.08a.75.75 0 0 1-.355.147l-2.001.265A1.73 1.73 0 0 0 5.994 6.98l-.267 2.007a.75.75 0 0 1-.147.356L4.355 10.95a1.729 1.729 0 0 0 0 2.1Z" clip-rule="evenodd"/></svg>