<svg width="25" height="20" viewBox="0 0 25 20" fill="none" xmlns="http://www.w3.org/2000/svg"><path fill-rule="evenodd" clip-rule="evenodd" d="M22.103 13.2978C22.1118 13.3011 22.121 13.3045 22.1306 13.3082C22.1932 13.3322 22.2739 13.3655 22.3659 13.4094C22.5392 13.492 22.8038 13.636 23.0693 13.8645C23.33 14.089 23.6838 14.4751 23.8736 15.0597C24.0805 15.6968 24.0242 16.3595 23.7717 16.9498L23.7717 16.9498L23.7686 16.9569C23.5278 17.5134 23.1262 17.9856 22.5703 18.2619C22.0478 18.5217 21.546 18.5305 21.2002 18.488C20.8546 18.4456 20.5713 18.3414 20.3937 18.264C20.3117 18.2283 20.2412 18.1934 20.1845 18.1635C19.6685 17.9426 18.9901 17.6705 18.2656 17.428C17.4909 17.1687 16.7334 16.9671 16.0994 16.8794C15.777 16.8349 15.5414 16.828 15.3849 16.8375C15.3165 16.8417 15.2746 16.8483 15.2545 16.8521C14.9465 17.0017 14.6588 17.1953 14.2691 17.4796L13.4615 16.2613L14.2691 17.4796C14.2162 17.5182 14.162 17.558 14.1039 17.6007L14.0758 17.6214C13.7254 17.8789 13.2493 18.229 12.7118 18.5267C11.2143 19.3562 9.48754 19.6619 7.09965 19.0976C1.61151 17.8006 0 12.3537 0 8.12715C0 6.54899 1.2397 5.53906 2.49781 5.53906C3.75463 5.53906 4.996 6.54771 4.996 8.12715C4.996 8.26823 4.99812 8.40699 5.00233 8.54341C5.09707 11.6116 6.2511 13.4969 8.19199 13.9555C8.91432 14.1262 9.37592 14.1349 9.67592 14.0989C9.95797 14.0651 10.1675 13.984 10.3888 13.8614C10.6261 13.73 10.8536 13.5662 11.2405 13.2823L11.2414 13.2817C11.3003 13.2384 11.3628 13.1926 11.4272 13.1456C11.839 12.8452 12.3764 12.4636 13.0421 12.1265C13.1129 12.0907 13.1852 12.0553 13.259 12.0206C14.456 11.4572 15.7945 11.5227 16.7488 11.6546C17.7916 11.7988 18.8609 12.0988 19.7768 12.4053L19.3448 13.8254L19.7768 12.4053C20.6789 12.7073 21.5005 13.0389 22.103 13.2978Z" fill="currentcolor"/><path fill-rule="evenodd" clip-rule="evenodd" d="M3.6511 4.00839C4.64563 4.23309 5.63402 3.60902 5.85872 2.61449C6.08343 1.61996 5.45936 0.631568 4.46483 0.406864C3.47029 0.182159 2.4819 0.806229 2.2572 1.80076C2.03249 2.7953 2.65656 3.78368 3.6511 4.00839Z" fill="currentcolor"/><path d="M6.46875 5.53906L9.69952 10.1544L19.3918 8.30829L23.5457 11.5391" stroke="currentcolor" stroke-width="2" stroke-linecap="round" stroke-linejoin="round"/></svg>