<svg xmlns="http://www.w3.org/2000/svg" width="25" height="24" fill="none">
  <path fill="currentcolor" fill-rule="evenodd" d="M21.117 12A8.5 8.5 0 1 1 5.296 7.68l.934.525c.394.222.637.638.637 1.09v.332c0 1.138.7 2.157 1.761 2.566l.735.284a.25.25 0 0 1 .138.335l-.616 1.373a1.631 1.631 0 0 0 1.168 2.267c.474.095.814.51.814.993v1.252c0 1.732 2.246 2.412 3.206.97l2.181-3.27 1.082-1.871c.123-.213.187-.454.187-.7 0-.985-.7-1.83-1.668-2.012l-2.118-.398-2.365-.32A2.25 2.25 0 0 1 13.617 9v-.75l.031.75 1.084-.046a2.75 2.75 0 0 0 2.635-2.747V4.95a8.491 8.491 0 0 1 3.75 7.05Zm-5.25-7.857a8.474 8.474 0 0 0-3.25-.643 8.48 8.48 0 0 0-6.441 2.954l.79.444a2.75 2.75 0 0 1 1.401 2.397v.332c0 .517.318.98.8 1.167l.705.271A3.75 3.75 0 0 1 13.6 7.5l1.068-.044a1.25 1.25 0 0 0 1.198-1.25V4.144ZM22.617 12c0 5.523-4.477 10-10 10s-10-4.477-10-10 4.477-10 10-10 10 4.477 10 10ZM10.87 13.426c.126-.282.172-.579.147-.865l2.48.336 2.08.391c.25.047.434.26.446.512l-1.043 1.804-2.155 3.232a.234.234 0 0 1-.124.102.264.264 0 0 1-.156-.002.264.264 0 0 1-.13-.085.234.234 0 0 1-.048-.154v-1.252a2.512 2.512 0 0 0-2.02-2.464.131.131 0 0 1-.093-.182l.616-1.373Z" clip-rule="evenodd"/>
</svg>