<svg xmlns="http://www.w3.org/2000/svg" width="24" height="24" fill="none">
  <path fill="currentcolor" fill-rule="evenodd" d="M12 2a.75.75 0 0 1 .75.75v1.682a.75.75 0 0 1-1.5 0V2.75A.75.75 0 0 1 12 2Zm0 16.818a.75.75 0 0 1 .75.75v1.682a.75.75 0 0 1-1.5 0v-1.682a.75.75 0 0 1 .75-.75ZM5.987 4.927a.75.75 0 1 0-1.061 1.06l1.194 1.195a.75.75 0 0 0 1.06-1.06L5.989 4.926Zm10.831 11.892a.75.75 0 0 1 1.06 0l1.195 1.194a.75.75 0 1 1-1.06 1.06l-1.195-1.193a.75.75 0 0 1 0-1.061ZM2.75 11.249a.75.75 0 0 0 0 1.5h1.682a.75.75 0 0 0 0-1.5H2.75Zm16.068.75a.75.75 0 0 1 .75-.75h1.682a.75.75 0 1 1 0 1.5h-1.682a.75.75 0 0 1-.75-.75ZM7.182 17.88a.75.75 0 0 0-1.06-1.06l-1.195 1.194a.75.75 0 1 0 1.06 1.06l1.195-1.193ZM19.074 4.928a.75.75 0 0 1 0 1.06L17.88 7.183a.75.75 0 0 1-1.061-1.06l1.194-1.195a.75.75 0 0 1 1.06 0ZM16.5 12a4.5 4.5 0 1 1-9 0 4.5 4.5 0 0 1 9 0ZM12 18a6 6 0 1 0 0-12 6 6 0 0 0 0 12Z" clip-rule="evenodd"/>
</svg>