<svg width="24" height="24" viewBox="0 0 24 24" fill="none" xmlns="http://www.w3.org/2000/svg"><path d="M12.3398 7C13.4444 7 14.3398 6.10457 14.3398 5C14.3398 3.89543 13.4444 3 12.3398 3C11.2353 3 10.3398 3.89543 10.3398 5C10.3398 6.10457 11.2353 7 12.3398 7Z" fill="currentcolor"/><path d="M13.3398 15V9H11.3398V15H13.3398Z" stroke="currentcolor" stroke-width="1.5" stroke-linecap="round" stroke-linejoin="round"/><path d="M13.3398 14.27V21" stroke="currentcolor" stroke-width="1.5" stroke-linecap="round" stroke-linejoin="round"/><path fill-rule="evenodd" clip-rule="evenodd" d="M11.3398 13.52C11.7541 13.52 12.0898 13.8558 12.0898 14.27V21C12.0898 21.4142 11.7541 21.75 11.3398 21.75C10.9256 21.75 10.5898 21.4142 10.5898 21V14.27C10.5898 13.8558 10.9256 13.52 11.3398 13.52Z" fill="currentcolor"/><path fill-rule="evenodd" clip-rule="evenodd" d="M17.0312 10.8919C16.4582 10.7164 15.6349 10.6001 14.7002 10.6001V9.6001C15.7055 9.6001 16.6322 9.72381 17.3241 9.93577C17.667 10.0408 17.9807 10.176 18.2196 10.3492C18.4472 10.5142 18.7002 10.7852 18.7002 11.1701C18.7002 11.5563 18.445 11.8273 18.2173 11.9917C17.9778 12.1645 17.6635 12.2995 17.3201 12.4045C16.6272 12.6163 15.7007 12.7401 14.7002 12.7401V11.7401C15.6297 11.7401 16.4532 11.6239 17.0278 11.4482C17.3182 11.3594 17.517 11.2638 17.6322 11.1807Z" fill="currentcolor"/><path fill-rule="evenodd" clip-rule="evenodd" d="M7.053 11.1804C7.05769 11.1768 7.06271 11.1731 7.06804 11.1692C7.18322 11.0861 7.38203 10.9905 7.67243 10.9018C8.24703 10.7261 9.07051 10.6099 10 10.6099V9.60986C8.99949 9.60986 8.07297 9.73363 7.38007 9.94546C7.03672 10.0504 6.7224 10.1855 6.48289 10.3583C6.25517 10.5226 6 10.7937 6 11.1799C6 11.5648 6.25296 11.8358 6.48064 12.0008C6.71953 12.174 7.03315 12.3091 7.37605 12.4142C8.06802 12.6262 8.99472 12.7499 10 12.7499V11.7499C9.06528 11.7499 8.24198 11.6336 7.66895 11.458Z" fill="currentcolor"/></svg>