<svg xmlns="http://www.w3.org/2000/svg" width="24" height="24" fill="none"><path fill="currentcolor" fill-rule="evenodd" d="M10.855 13.19c.261 0 .461-.098.601-.29.14-.194.21-.467.21-.822 0-.34-.071-.603-.214-.793-.142-.189-.347-.283-.613-.283a.728.728 0 0 0-.607.295c-.151.197-.227.463-.227.796 0 .313.078.574.235.783a.734.734 0 0 0 .615.313Zm2.171-1.081c0 .405-.072.768-.217 1.09a1.77 1.77 0 0 1-.627.759 1.647 1.647 0 0 1-.943.276c-.438 0-.842-.172-1.214-.517v1.328h.822V16H8v-.955h.704v-4.083H8.11v-.97h1.914v.517c.366-.381.776-.572 1.23-.572.366 0 .683.096.95.286.268.19.472.45.611.779.14.328.21.698.21 1.107ZM17.082 8.583l-.971.749a1.086 1.086 0 0 0-.163-.339.266.266 0 0 0-.214-.114c-.12 0-.21.049-.267.146-.058.097-.086.248-.086.453v.426h.746v.97h-.746v2.218h.786v.954h-2.744v-.954h.617v-2.219h-.565v-.97h.565v-.425c0-.452.139-.811.416-1.078.277-.267.68-.4 1.21-.4.663 0 1.136.194 1.416.583ZM20.71 9.293h-1.16l-.334 1.864H17.19L17 12.224h2.024l-.333 1.86h1.16l.333-1.86h2.025l.191-1.067h-2.024l.334-1.864Z" clip-rule="evenodd"/><path fill="currentcolor" d="M16 3.5H8A1.5 1.5 0 0 0 6.5 5v14A1.5 1.5 0 0 0 8 20.5h8a1.5 1.5 0 0 0 1.5-1.5v-2.25a.75.75 0 0 1 1.5 0V19a3 3 0 0 1-3 3H8a3 3 0 0 1-3-3V5a3 3 0 0 1 3-3h8a3 3 0 0 1 3 3v2.25a.75.75 0 0 1-1.5 0V5A1.5 1.5 0 0 0 16 3.5Z"/></svg>