<svg width="24" height="24" viewBox="0 0 24 24" fill="none" xmlns="http://www.w3.org/2000/svg"><path fill-rule="evenodd" clip-rule="evenodd" d="M18.2777 9.08719L6.95333 4.41591C5.3077 3.73709 3.5 4.94687 3.5 6.72701V13.5001C3.5 14.8808 4.61929 16.0001 6 16.0001H16.9079C18.8917 16.0001 20.5 14.3918 20.5 12.4079C20.5 10.9531 19.6225 9.64195 18.2777 9.08719ZM7.52532 3.02925C4.89232 1.94314 2 3.87879 2 6.72701V13.5001C2 15.7092 3.79086 17.5001 6 17.5001H16.9079C19.7202 17.5001 22 15.2202 22 12.4079C22 10.3456 20.7561 8.48695 18.8496 7.70054L7.52532 3.02925Z" fill="currentcolor"/><path fill-rule="evenodd" clip-rule="evenodd" d="M8.15557 10.2928C8.40812 9.96444 8.879 9.90302 9.20732 10.1556L11.9813 12.2894L14.5199 10.1739C14.7896 9.94914 15.1791 9.94153 15.4573 10.1556L18.7073 12.6556C19.0356 12.9081 19.0971 13.379 18.8445 13.7073C18.592 14.0356 18.1211 14.0971 17.7928 13.8445L15.0188 11.7107L12.4802 13.8262C12.2105 14.0509 11.821 14.0585 11.5428 13.8445L8.29275 11.3445C7.96444 11.092 7.90302 10.6211 8.15557 10.2928Z" fill="currentcolor"/><path fill-rule="evenodd" clip-rule="evenodd" d="M15.5 17.5H8.5C7.94772 17.5 7.5 17.9477 7.5 18.5C7.5 19.0523 7.94772 19.5 8.5 19.5H15.5C16.0523 19.5 16.5 19.0523 16.5 18.5C16.5 17.9477 16.0523 17.5 15.5 17.5ZM8.5 16C7.11929 16 6 17.1193 6 18.5C6 19.8807 7.11929 21 8.5 21H15.5C16.8807 21 18 19.8807 18 18.5C18 17.1193 16.8807 16 15.5 16H8.5Z" fill="currentcolor"/><path fill-rule="evenodd" clip-rule="evenodd" d="M6.5 10C7.32843 10 8 9.32843 8 8.5C8 7.67157 7.32843 7 6.5 7C5.67157 7 5 7.67157 5 8.5C5 9.32843 5.67157 10 6.5 10Z" fill="currentcolor"/></svg>