<svg xmlns="http://www.w3.org/2000/svg" width="24" height="24" fill="none">
  <path fill="currentcolor" d="M11.995 17c-.552 0-1 .448-.995 1a.996.996 0 0 0 .997 1 1 1 0 1 0-.002-2Z"/>
  <path fill="currentcolor" fill-rule="evenodd" d="M12 6.5a12.331 12.331 0 0 0-8.72 3.612.75.75 0 1 1-1.06-1.06 13.832 13.832 0 0 1 4.487-3l.287.694-.287-.693A13.831 13.831 0 0 1 21.78 9.05a.75.75 0 0 1-1.06 1.06A12.332 12.332 0 0 0 12 6.5Zm0 4.088a8.243 8.243 0 0 0-5.83 2.414.75.75 0 0 1-1.06-1.06 9.743 9.743 0 0 1 13.78 0 .75.75 0 1 1-1.061 1.06 8.24 8.24 0 0 0-5.83-2.414Zm0 4.088c-.546 0-1.086.107-1.59.316l-.287-.693.287.693a4.157 4.157 0 0 0-1.348.901.75.75 0 0 1-1.06-1.06 5.655 5.655 0 0 1 7.997 0 .75.75 0 0 1-1.06 1.06A4.157 4.157 0 0 0 12 14.676Z" clip-rule="evenodd"/>
</svg>