<svg xmlns="http://www.w3.org/2000/svg" width="25" height="24" fill="none">
  <path fill="currentcolor" fill-rule="evenodd" d="M6.95 2a.75.75 0 0 0-.688.45l-3.7 8.5A.75.75 0 0 0 3.25 12H4v8.5h-.75a.75.75 0 0 0 0 1.5h18.5a.75.75 0 0 0 0-1.5H21V12h.75a.75.75 0 0 0 .688-1.05l-3.7-8.5A.75.75 0 0 0 18.05 2H6.95Zm3.55 18.5H8v-5.75a.25.25 0 0 1 .25-.25h2a.25.25 0 0 1 .25.25v5.75Zm1.5-5.75v5.75h7.5V12h-14v8.5h1v-5.75c0-.966.784-1.75 1.75-1.75h2c.966 0 1.75.784 1.75 1.75ZM4.394 10.5l3.048-7h10.116l3.048 7H4.394ZM14.75 13A1.75 1.75 0 0 0 13 14.75v2c0 .966.784 1.75 1.75 1.75h2a1.75 1.75 0 0 0 1.75-1.75v-2A1.75 1.75 0 0 0 16.75 13h-2Zm-.25 1.75a.25.25 0 0 1 .25-.25h2a.25.25 0 0 1 .25.25v2a.25.25 0 0 1-.25.25h-2a.25.25 0 0 1-.25-.25v-2Z" clip-rule="evenodd"/>
</svg>