<svg viewBox="0 0 28 28" fill="none" xmlns="http://www.w3.org/2000/svg">
<path fill-rule="evenodd" clip-rule="evenodd" d="M10 2C9.46957 2 8.96086 2.21071 8.58579 2.58579C8.21071 2.96086 8 3.46957 8 4V6H6C5.46957 6 4.96086 6.21071 4.58579 6.58579C4.21071 6.96086 4 7.46957 4 8V10C4 10.5304 4.21071 11.0391 4.58579 11.4142C4.96086 11.7893 5.46957 12 6 12H8V24C8 24.5304 8.21071 25.0391 8.58579 25.4142C8.96086 25.7893 9.46957 26 10 26H18C18.5304 26 19.0391 25.7893 19.4142 25.4142C19.7893 25.0391 20 24.5304 20 24V12C20 11.4696 19.7893 10.9609 19.4142 10.5858C19.0391 10.2107 18.5304 10 18 10H16V4C16 3.46957 15.7893 2.96086 15.4142 2.58579C15.0391 2.21071 14.5304 2 14 2H10ZM10 4H14V10H10V4ZM22 6C22.5523 6 23 5.55228 23 5C23 4.44772 22.5523 4 22 4H19C18.4477 4 18 4.44772 18 5C18 5.55228 18.4477 6 19 6H22ZM24 10C24.5523 10 25 9.55228 25 9C25 8.44772 24.5523 8 24 8H19C18.4477 8 18 8.44772 18 9C18 9.55228 18.4477 10 19 10H24Z" fill="#8656ED"/>
</svg>