<svg xmlns="http://www.w3.org/2000/svg" width="24" height="24" viewBox="0 0 24 24" fill="none">
<path
fill-rule="evenodd"
clip-rule="evenodd"
d="M4.28916 5.63855C4.28916 4.8933 4.8933 4.28916 5.63855 4.28916H9.96213C10.2815 4.28916 10.5404 4.54808 10.5404 4.86747C10.5404 5.18686 10.2815 5.44578 9.96213 5.44578H5.63855C5.53209 5.44578 5.44578 5.53209 5.44578 5.63855V18.3614C5.44578 18.4679 5.53209 18.5542 5.63855 18.5542H18.3614C18.4679 18.5542 18.5542 18.4679 18.5542 18.3614V14.0379C18.5542 13.7185 18.8131 13.4596 19.1325 13.4596C19.4519 13.4596 19.7108 13.7185 19.7108 14.0379V18.3614C19.7108 19.1067 19.1067 19.7108 18.3614 19.7108H5.63855C4.8933 19.7108 4.28916 19.1067 4.28916 18.3614V5.63855ZM13.5422 4.86747C13.5422 4.54808 13.8011 4.28916 14.1205 4.28916H19.1325C19.4519 4.28916 19.7108 4.54808 19.7108 4.86747V9.87952C19.7108 10.1989 19.4519 10.4578 19.1325 10.4578C18.8131 10.4578 18.5542 10.1989 18.5542 9.87952V6.26364L12.2162 12.6017C11.9903 12.8275 11.6241 12.8275 11.3983 12.6017C11.1725 12.3759 11.1725 12.0097 11.3983 11.7838L17.7364 5.44578H14.1205C13.8011 5.44578 13.5422 5.18686 13.5422 4.86747Z"
fill="black"
/>
<path
fill-rule="evenodd"
clip-rule="evenodd"
d="M4 5.63855C4 4.73361 4.7336 4 5.63855 4H9.96213C10.4412 4 10.8296 4.38838 10.8296 4.86747C10.8296 5.34656 10.4412 5.73494 9.96213 5.73494H5.73494V18.2651H18.2651V14.0379C18.2651 13.5588 18.6534 13.1704 19.1325 13.1704C19.6116 13.1704 20 13.5588 20 14.0379V18.3614C20 19.2664 19.2664 20 18.3614 20H5.63855C4.73361 20 4 19.2664 4 18.3614V5.63855ZM5.63855 4.57831C5.053 4.57831 4.57831 5.053 4.57831 5.63855V18.3614C4.57831 18.947 5.053 19.4217 5.63855 19.4217H18.3614C18.947 19.4217 19.4217 18.947 19.4217 18.3614V14.0379C19.4217 13.8782 19.2922 13.7487 19.1325 13.7487C18.9728 13.7487 18.8434 13.8782 18.8434 14.0379V18.3614C18.8434 18.6276 18.6276 18.8434 18.3614 18.8434H5.63855C5.37239 18.8434 5.15663 18.6276 5.15663 18.3614V5.63855C5.15663 5.37239 5.37239 5.15663 5.63855 5.15663H9.96213C10.1218 5.15663 10.2513 5.02717 10.2513 4.86747C10.2513 4.70777 10.1218 4.57831 9.96213 4.57831H5.63855ZM13.253 4.86747C13.253 4.38838 13.6414 4 14.1205 4H19.1325C19.6116 4 20 4.38838 20 4.86747V9.87952C20 10.3586 19.6116 10.747 19.1325 10.747C18.6534 10.747 18.2651 10.3586 18.2651 9.87952V6.96173L12.4206 12.8062C12.0819 13.1449 11.5326 13.1449 11.1938 12.8062C10.8551 12.4674 10.8551 11.9181 11.1938 11.5794L17.0383 5.73494H14.1205C13.6414 5.73494 13.253 5.34656 13.253 4.86747ZM14.1205 4.57831C13.9608 4.57831 13.8313 4.70777 13.8313 4.86747C13.8313 5.02717 13.9608 5.15663 14.1205 5.15663H17.7364C17.8533 5.15663 17.9587 5.22708 18.0035 5.33513C18.0483 5.44318 18.0235 5.56755 17.9408 5.65025L11.6028 11.9883C11.4898 12.1012 11.4898 12.2843 11.6028 12.3972C11.7157 12.5102 11.8988 12.5102 12.0117 12.3972L18.3498 6.05918C18.4325 5.97648 18.5568 5.95174 18.6649 5.9965C18.7729 6.04125 18.8434 6.14669 18.8434 6.26364V9.87952C18.8434 10.0392 18.9728 10.1687 19.1325 10.1687C19.2922 10.1687 19.4217 10.0392 19.4217 9.87952V4.86747C19.4217 4.70777 19.2922 4.57831 19.1325 4.57831H14.1205Z"
fill="#14142B"
/>
</svg>
