<svg  viewBox="0 0 57 56"  fill="none"  xmlns="http://www.w3.org/2000/svg">
<path
fill-rule="evenodd"
clip-rule="evenodd"
d="M48.3327 27.9998C48.3327 38.9535 39.453 47.8332 28.4993 47.8332C17.5457 47.8332 8.66602 38.9535 8.66602 27.9998C8.66602 24.3193 9.66857 20.8729 11.4155 17.9188L13.596 19.1454C14.5144 19.662 15.0827 20.6337 15.0827 21.6875V22.4638C15.0827 25.1172 16.7159 27.497 19.1917 28.4512L20.9057 29.1118C21.2178 29.2321 21.3651 29.5897 21.2281 29.8948L19.7911 33.0982C18.7909 35.3278 20.1211 37.9088 22.5173 38.3881C23.6213 38.6089 24.416 39.5783 24.416 40.7042V43.6267C24.416 47.6668 29.6559 49.2533 31.8969 45.8917L36.9864 38.2574L39.5091 33.8939C39.7962 33.3974 39.9473 32.834 39.9473 32.2605C39.9473 29.9628 38.3115 27.9906 36.0534 27.5658L31.1121 26.6363L25.5949 25.8892C25.7802 23.1579 28.0544 20.9998 30.8327 20.9998V19.2498L30.9056 20.9983L33.4332 20.893C36.8701 20.7498 39.5827 17.9218 39.5827 14.4819V11.5499C44.8616 15.1136 48.3327 21.1514 48.3327 27.9998ZM36.0827 9.6679C33.7465 8.70042 31.1853 8.1665 28.4993 8.1665C22.491 8.1665 17.1066 10.8382 13.4695 15.0585L15.3119 16.0949C17.3323 17.2314 18.5827 19.3693 18.5827 21.6875V22.4638C18.5827 23.6699 19.3251 24.7516 20.4505 25.1854L22.0932 25.8185C22.3174 21.199 26.1239 17.52 30.7943 17.4999L33.2875 17.396C34.8497 17.3309 36.0827 16.0455 36.0827 14.4819V9.6679ZM51.8327 27.9998C51.8327 40.8865 41.386 51.3332 28.4993 51.3332C15.6127 51.3332 5.16602 40.8865 5.16602 27.9998C5.16602 15.1132 15.6127 4.6665 28.4993 4.6665C41.386 4.6665 51.8327 15.1132 51.8327 27.9998ZM24.4215 31.3274C24.7166 30.6696 24.8232 29.977 24.7654 29.3088L30.5534 30.0926L35.4064 31.0055C35.9899 31.1153 36.418 31.6117 36.4459 32.1995L34.0123 36.4089L28.9847 43.9503C28.8841 44.1012 28.7807 44.1607 28.694 44.1887C28.5934 44.2213 28.4647 44.2257 28.3303 44.185C28.196 44.1443 28.0913 44.0693 28.0257 43.9864C27.9691 43.9149 27.916 43.808 27.916 43.6267V40.7042C27.916 37.9099 25.9437 35.5041 23.2037 34.956C23.011 34.9175 22.9041 34.71 22.9845 34.5308L24.4215 31.3274Z"
fill="#8656ED"
/>
</svg>
