<svg xmlns="http://www.w3.org/2000/svg" width="32" height="32" viewBox="0 0 32 32" fill="none">
<path fill-rule="evenodd" clip-rule="evenodd" d="M5.33203 7.66797C5.33203 7.11568 5.77975 6.66797 6.33203 6.66797H25.6654C26.2176 6.66797 26.6654 7.11568 26.6654 7.66797C26.6654 8.22025 26.2176 8.66797 25.6654 8.66797H6.33203C5.77975 8.66797 5.33203 8.22025 5.33203 7.66797ZM5.33203 16.0013C5.33203 15.449 5.77975 15.0013 6.33203 15.0013H25.6654C26.2176 15.0013 26.6654 15.449 26.6654 16.0013C26.6654 16.5536 26.2176 17.0013 25.6654 17.0013H6.33203C5.77975 17.0013 5.33203 16.5536 5.33203 16.0013ZM6.33203 23.3346C5.77975 23.3346 5.33203 23.7824 5.33203 24.3346C5.33203 24.8869 5.77975 25.3346 6.33203 25.3346H25.6654C26.2176 25.3346 26.6654 24.8869 26.6654 24.3346C26.6654 23.7824 26.2176 23.3346 25.6654 23.3346H6.33203Z" fill="#14142B"/>
</svg>
