<svg viewBox="0 0 28 28" fill="none" xmlns="http://www.w3.org/2000/svg">
<path fill-rule="evenodd" clip-rule="evenodd" d="M15.1667 3.5C15.1667 2.90326 14.9296 2.33097 14.5076 1.90901C14.0857 1.48705 13.5134 1.25 12.9167 1.25C12.3199 1.25 11.7476 1.48705 11.3257 1.90901C10.9037 2.33097 10.6667 2.90326 10.6667 3.5V12.8333H5.83334C5.22463 12.8333 4.64094 13.0766 4.21273 13.5054C3.78452 13.9342 3.54167 14.5186 3.54167 15.1286V21.5C3.54167 22.8144 4.06101 24.0746 4.98307 25.0009C5.90513 25.9271 7.16209 26.4583 8.47167 26.4583H20.2083C21.0513 26.4583 21.8733 26.1986 22.5546 25.7169C23.2359 25.2352 23.7424 24.5562 24.0055 23.7738L26.2555 17.0238C26.4323 16.5032 26.4834 15.9483 26.4047 15.4046C26.3261 14.8608 26.1201 14.3435 25.8036 13.8943C25.4872 13.445 25.069 13.0773 24.5837 12.8213C24.0984 12.5654 23.5598 12.4285 23.0117 12.4217H17.5V3.5C17.5 2.90326 17.2629 2.33097 16.8409 1.90901C16.419 1.48705 15.8467 1.25 15.25 1.25" fill="#8656ED"/>
<path d="M8.16667 12.8333H5.83334C5.21449 12.8333 4.62101 13.0791 4.18343 13.5167C3.74585 13.9543 3.5 14.5478 3.5 15.1667V23.3333C3.5 23.9522 3.74585 24.5457 4.18343 24.9833C4.62101 25.4208 5.21449 25.6667 5.83334 25.6667H8.16667V12.8333Z" fill="#8656ED"/>
</svg>