<svg width="24" height="24" viewBox="0 0 24 24" fill="none" xmlns="http://www.w3.org/2000/svg">
  <path fill-rule="evenodd" clip-rule="evenodd" d="M8 3.5H16C16.8284 3.5 17.5 4.17157 17.5 5V19C17.5 19.8284 16.8284 20.5 16 20.5H8C7.17157 20.5 6.5 19.8284 6.5 19V5C6.5 4.17157 7.17157 3.5 8 3.5ZM5 5C5 3.34315 6.34315 2 8 2H16C17.6569 2 19 3.34315 19 5V19C19 20.6569 17.6569 22 16 22H8C6.34315 22 5 20.6569 5 19V5ZM10.75 18C10.3358 18 10 18.3358 10 18.75C10 19.1642 10.3358 19.5 10.75 19.5H13.25C13.6642 19.5 14 19.1642 14 18.75C14 18.3358 13.6642 18 13.25 18H10.75Z" fill="currentcolor"/>
</svg>