<svg viewBox="0 0 28 28" fill="none" xmlns="http://www.w3.org/2000/svg">
<path fill-rule="evenodd" clip-rule="evenodd" d="M12.25 4.08333C7.73959 4.08333 4.08333 7.73959 4.08333 12.25C4.08333 16.7604 7.73959 20.4167 12.25 20.4167C14.0977 20.4167 15.8013 19.7927 17.1548 18.7448L22.2218 23.8118C22.6449 24.2349 23.3301 24.2349 23.7532 23.8118C24.1763 23.3887 24.1763 22.7035 23.7532 22.2804L18.6862 17.2134C19.7341 15.8599 20.3583 14.1563 20.3583 12.3086C20.3583 7.79821 16.702 4.14198 12.1916 4.14198L12.25 4.08333ZM5.83333 12.25C5.83333 8.70718 8.70718 5.83333 12.25 5.83333C15.7928 5.83333 18.6667 8.70718 18.6667 12.25C18.6667 15.7928 15.7928 18.6667 12.25 18.6667C8.70718 18.6667 5.83333 15.7928 5.83333 12.25Z" fill="#8656ED"/>
</svg>