<svg xmlns="http://www.w3.org/2000/svg" width="24" height="24" viewBox="0 0 24 24" fill="none">
<path
fill-rule="evenodd"
clip-rule="evenodd"
d="M12 3.5C7.30558 3.5 3.5 7.30558 3.5 12C3.5 14.0043 4.19373 15.8466 5.35418 17.2999C7.18293 15.8598 9.49178 15 12 15C14.5082 15 16.817 15.8598 18.6458 17.2999C19.8063 15.8466 20.5 14.0043 20.5 12C20.5 7.30558 16.6944 3.5 12 3.5ZM17.6046 18.3906C16.0492 17.2041 14.1075 16.5 12 16.5C9.89245 16.5 7.95078 17.204 6.39535 18.3906C7.89154 19.7038 9.85279 20.5 12 20.5C14.1472 20.5 16.1084 19.7038 17.6046 18.3906ZM2 12C2 6.47715 6.47715 2 12 2C17.5228 2 22 6.47715 22 12C22 17.5228 17.5228 22 12 22C6.47715 22 2 17.5228 2 12ZM12 7.5C10.6193 7.5 9.5 8.61929 9.5 10C9.5 11.3807 10.6193 12.5 12 12.5C13.3807 12.5 14.5 11.3807 14.5 10C14.5 8.61929 13.3807 7.5 12 7.5ZM8 10C8 7.79086 9.79086 6 12 6C14.2091 6 16 7.79086 16 10C16 12.2091 14.2091 14 12 14C9.79086 14 8 12.2091 8 10Z"
fill="currentColor"
/>
</svg>
