<svg viewBox="0 0 28 28" fill="none" xmlns="http://www.w3.org/2000/svg">
<path d="M14 4.66667C10.3181 4.66667 7.33333 7.65144 7.33333 11.3333C7.33333 15.0153 10.3181 18 14 18C17.6819 18 20.6667 15.0153 20.6667 11.3333C20.6667 7.65144 17.6819 4.66667 14 4.66667Z" stroke="#8656ED" stroke-width="1.75" stroke-linecap="round" stroke-linejoin="round"/>
<path d="M5.25 20.4167C7.17083 22.0583 9.73333 23.0833 12.6 23.3167M22.75 20.4167C20.8292 22.0583 18.2667 23.0833 15.4 23.3167" stroke="#8656ED" stroke-width="1.75" stroke-linecap="round" stroke-linejoin="round"/>
<path d="M9.3335 11.3333C9.3335 12.5714 9.82516 13.7589 10.7003 14.634C11.5754 15.5091 12.7629 16.0008 14.0002 16.0008C15.2374 16.0008 16.4249 15.5091 17.3 14.634C18.1751 13.7589 18.6668 12.5714 18.6668 11.3333" stroke="#8656ED" stroke-width="1.75" stroke-linecap="round" stroke-linejoin="round"/>
<path d="M14 4.66667V8.33333" stroke="#8656ED" stroke-width="1.75" stroke-linecap="round"/>
<path d="M4.66669 23.3333L6.00002 20.6667" stroke="#8656ED" stroke-width="1.75" stroke-linecap="round"/>
<path d="M23.3333 23.3333L22 20.6667" stroke="#8656ED" stroke-width="1.75" stroke-linecap="round"/>
</svg>