<svg xmlns="http://www.w3.org/2000/svg" width="24" height="24" fill="none">
  <path fill="currentcolor" fill-rule="evenodd" d="M13.907 9.034a.866.866 0 1 0 1.671.454.866.866 0 0 0-1.671-.454Zm2.512-1.444a2.367 2.367 0 1 1-3.352 3.343A2.367 2.367 0 0 1 16.42 7.59Z" clip-rule="evenodd"/>
  <path fill="currentcolor" fill-rule="evenodd" d="M11.085 5.5a.25.25 0 0 0-.177.073l-7.32 7.32a.25.25 0 0 0 0 .354l7.165 7.166a.25.25 0 0 0 .353 0l7.32-7.32a.25.25 0 0 0 .074-.178V5.75a.25.25 0 0 0-.25-.25h-7.165Zm-1.238-.987A1.75 1.75 0 0 1 11.085 4h7.165c.966 0 1.75.784 1.75 1.75v7.165c0 .465-.184.91-.513 1.238l-7.32 7.32a1.75 1.75 0 0 1-2.475 0l-7.165-7.165a1.75 1.75 0 0 1 0-2.475l7.32-7.32Z" clip-rule="evenodd"/>
</svg>