<svg xmlns="http://www.w3.org/2000/svg" width="20" height="20" viewBox="0 0 20 20" fill="none">
    <path d="M10 20C15.5228 20 20 15.5228 20 10C20 4.47715 15.5228 0 10 0C4.47715 0 0 4.47715 0 10C0 15.5228 4.47715 20 10 20Z" fill="white"/>
    <path fill-rule="evenodd" clip-rule="evenodd" d="M3.75 2.19385V17.8073C1.46384 15.9746 0 13.1585 0 10.0006C0 6.84258 1.46384 4.0265 3.75 2.19385Z" fill="#E94B35"/>
    <path fill-rule="evenodd" clip-rule="evenodd" d="M16.25 17.8073V2.19385C18.5362 4.0265 20 6.84258 20 10.0006C20 13.1585 18.5362 15.9746 16.25 17.8073Z" fill="#E94B35"/>
    <path fill-rule="evenodd" clip-rule="evenodd" d="M9.99984 5.625L9.29029 6.94464C9.20977 7.08806 9.06552 7.07476 8.92126 6.99465L8.40756 6.7294L8.79043 8.75634C8.87094 9.12665 8.61262 9.12665 8.48513 8.96653L7.58863 7.96577L7.44309 8.47398C7.4263 8.54072 7.35251 8.61082 7.24179 8.59412L6.10816 8.35645L6.40591 9.4359C6.46966 9.67609 6.51938 9.77554 6.34156 9.83888L5.9375 10.0283L7.88898 11.6089C7.96622 11.6686 8.00525 11.7762 7.97775 11.8736L7.80695 12.4325C8.47888 12.3552 9.08093 12.239 9.7532 12.1675C9.81254 12.1612 9.9119 12.2588 9.91149 12.3274L9.82246 14.375H10.1492L10.0977 12.3318C10.0973 12.2632 10.1875 12.1612 10.2468 12.1675C10.9191 12.239 11.5211 12.3552 12.193 12.4325L12.0223 11.8736C11.9948 11.7762 12.0338 11.6686 12.111 11.6089L14.0625 10.0283L13.6584 9.83888C13.4806 9.77554 13.5303 9.67609 13.5941 9.4359L13.8918 8.35645L12.7582 8.59412C12.6475 8.61082 12.5737 8.54072 12.5569 8.47398L12.4114 7.96577L11.5149 8.96653C11.3874 9.12665 11.1291 9.12665 11.2096 8.75634L11.5924 6.7294L11.0787 6.99465C10.9345 7.07476 10.7902 7.08806 10.7097 6.94464L9.99984 5.625Z" fill="#E94B35"/>
</svg>
