<svg xmlns="http://www.w3.org/2000/svg" width="20" height="20" viewBox="0 0 20 20" fill="none">
    <path d="M10 20C15.5228 20 20 15.5228 20 10C20 4.47715 15.5228 0 10 0C4.47715 0 0 4.47715 0 10C0 15.5228 4.47715 20 10 20Z" fill="white"/>
    <path fill-rule="evenodd" clip-rule="evenodd" d="M15.2704 1.5H10V0C11.9342 0 13.7401 0.549133 15.2704 1.5ZM17.2222 3.08333C17.663 3.54348 18.0603 4.04569 18.4074 4.58333H10V3.08333H17.2222ZM19.2389 6.16665C19.4392 6.64876 19.6028 7.14992 19.7263 7.66665H10V6.16665H19.2389L19.2389 6.16665ZM19.9723 9.24998C19.9907 9.49759 20 9.7477 20 10C20 10.2523 19.9907 10.5024 19.9723 10.75H10V9.24998H19.9723ZM0.273682 12.3333H19.7263C19.6028 12.85 19.4392 13.3512 19.239 13.8333H0.761066C0.56081 13.3512 0.397191 12.85 0.273682 12.3333ZM1.59262 15.4166H18.4074C18.0603 15.9543 17.663 16.4565 17.2222 16.9166H2.77779C2.33698 16.4565 1.93972 15.9543 1.59262 15.4166ZM4.72952 18.5H15.2705C13.7478 19.4461 11.9522 19.9945 10.0289 20H9.97116C8.04783 19.9945 6.25221 19.4461 4.72952 18.5Z" fill="#E94B35"/>
    <path fill-rule="evenodd" clip-rule="evenodd" d="M10 0V10.75H0.027703C0.00934337 10.5024 0 10.2523 0 10C0 4.47715 4.47715 0 10 0Z" fill="#227FBB"/>
    <path fill-rule="evenodd" clip-rule="evenodd" d="M7.91678 2.29248L7.67187 2.42124L7.71864 2.14853L7.52051 1.95539L7.79433 1.9156L7.91678 1.66748L8.03924 1.9156L8.31306 1.95539L8.11492 2.14853L8.16169 2.42124L7.91678 2.29248Z" fill="white"/>
    <path fill-rule="evenodd" clip-rule="evenodd" d="M6.25003 2.29248L6.00512 2.42124L6.0519 2.14853L5.85376 1.95539L6.12758 1.9156L6.25003 1.66748L6.37249 1.9156L6.64631 1.95539L6.44817 2.14853L6.49494 2.42124L6.25003 2.29248Z" fill="white"/>
    <path fill-rule="evenodd" clip-rule="evenodd" d="M8.75003 1.04248L8.50512 1.17124L8.5519 0.898526L8.35376 0.70539L8.62758 0.665602L8.75003 0.41748L8.87249 0.665602L9.14631 0.70539L8.94817 0.898526L8.99494 1.17124L8.75003 1.04248Z" fill="white"/>
    <path fill-rule="evenodd" clip-rule="evenodd" d="M3.75003 3.54248L3.50512 3.67124L3.5519 3.39853L3.35376 3.20539L3.62758 3.1656L3.75003 2.91748L3.87249 3.1656L4.14631 3.20539L3.94817 3.39853L3.99494 3.67124L3.75003 3.54248Z" fill="white"/>
    <path fill-rule="evenodd" clip-rule="evenodd" d="M5.41678 3.54248L5.17187 3.67124L5.21864 3.39853L5.02051 3.20539L5.29433 3.1656L5.41678 2.91748L5.53924 3.1656L5.81305 3.20539L5.61492 3.39853L5.66169 3.67124L5.41678 3.54248Z" fill="white"/>
    <path fill-rule="evenodd" clip-rule="evenodd" d="M7.08329 3.54248L6.83837 3.67124L6.88515 3.39853L6.68701 3.20539L6.96083 3.1656L7.08329 2.91748L7.20574 3.1656L7.47956 3.20539L7.28142 3.39853L7.3282 3.67124L7.08329 3.54248Z" fill="white"/>
    <path fill-rule="evenodd" clip-rule="evenodd" d="M7.08329 3.54248L6.83837 3.67124L6.88515 3.39853L6.68701 3.20539L6.96083 3.1656L7.08329 2.91748L7.20574 3.1656L7.47956 3.20539L7.28142 3.39853L7.3282 3.67124L7.08329 3.54248Z" fill="white"/>
    <path fill-rule="evenodd" clip-rule="evenodd" d="M7.91678 4.79248L7.67187 4.92124L7.71864 4.64853L7.52051 4.45539L7.79433 4.4156L7.91678 4.16748L8.03924 4.4156L8.31306 4.45539L8.11492 4.64853L8.16169 4.92124L7.91678 4.79248Z" fill="white"/>
    <path fill-rule="evenodd" clip-rule="evenodd" d="M2.91678 4.79248L2.67187 4.92124L2.71864 4.64853L2.52051 4.45539L2.79433 4.4156L2.91678 4.16748L3.03924 4.4156L3.31305 4.45539L3.11492 4.64853L3.16169 4.92124L2.91678 4.79248Z" fill="white"/>
    <path fill-rule="evenodd" clip-rule="evenodd" d="M4.58329 4.79248L4.33837 4.92124L4.38515 4.64853L4.18701 4.45539L4.46083 4.4156L4.58329 4.16748L4.70574 4.4156L4.97956 4.45539L4.78142 4.64853L4.8282 4.92124L4.58329 4.79248Z" fill="white"/>
    <path fill-rule="evenodd" clip-rule="evenodd" d="M6.25003 4.79248L6.00512 4.92124L6.0519 4.64853L5.85376 4.45539L6.12758 4.4156L6.25003 4.16748L6.37249 4.4156L6.64631 4.45539L6.44817 4.64853L6.49494 4.92124L6.25003 4.79248Z" fill="white"/>
    <path fill-rule="evenodd" clip-rule="evenodd" d="M8.75003 3.54248L8.50512 3.67124L8.5519 3.39853L8.35376 3.20539L8.62758 3.1656L8.75003 2.91748L8.87249 3.1656L9.14631 3.20539L8.94817 3.39853L8.99494 3.67124L8.75003 3.54248Z" fill="white"/>
    <path fill-rule="evenodd" clip-rule="evenodd" d="M2.08329 6.04248L1.83837 6.17124L1.88515 5.89853L1.68701 5.70539L1.96083 5.6656L2.08329 5.41748L2.20574 5.6656L2.47956 5.70539L2.28142 5.89853L2.3282 6.17124L2.08329 6.04248Z" fill="white"/>
    <path fill-rule="evenodd" clip-rule="evenodd" d="M3.75003 6.04248L3.50512 6.17124L3.5519 5.89853L3.35376 5.70539L3.62758 5.6656L3.75003 5.41748L3.87249 5.6656L4.14631 5.70539L3.94817 5.89853L3.99494 6.17124L3.75003 6.04248Z" fill="white"/>
    <path fill-rule="evenodd" clip-rule="evenodd" d="M5.41678 6.04248L5.17187 6.17124L5.21864 5.89853L5.02051 5.70539L5.29433 5.6656L5.41678 5.41748L5.53924 5.6656L5.81305 5.70539L5.61492 5.89853L5.66169 6.17124L5.41678 6.04248Z" fill="white"/>
    <path fill-rule="evenodd" clip-rule="evenodd" d="M7.08329 6.04248L6.83837 6.17124L6.88515 5.89853L6.68701 5.70539L6.96083 5.6656L7.08329 5.41748L7.20574 5.6656L7.47956 5.70539L7.28142 5.89853L7.3282 6.17124L7.08329 6.04248Z" fill="white"/>
    <path fill-rule="evenodd" clip-rule="evenodd" d="M7.08329 6.04248L6.83837 6.17124L6.88515 5.89853L6.68701 5.70539L6.96083 5.6656L7.08329 5.41748L7.20574 5.6656L7.47956 5.70539L7.28142 5.89853L7.3282 6.17124L7.08329 6.04248Z" fill="white"/>
    <path fill-rule="evenodd" clip-rule="evenodd" d="M7.91678 7.29248L7.67187 7.42124L7.71864 7.14853L7.52051 6.95539L7.79433 6.9156L7.91678 6.66748L8.03924 6.9156L8.31306 6.95539L8.11492 7.14853L8.16169 7.42124L7.91678 7.29248Z" fill="white"/>
    <path fill-rule="evenodd" clip-rule="evenodd" d="M1.25003 7.29248L1.00512 7.42124L1.0519 7.14853L0.85376 6.95539L1.12758 6.9156L1.25003 6.66748L1.37249 6.9156L1.64631 6.95539L1.44817 7.14853L1.49494 7.42124L1.25003 7.29248Z" fill="white"/>
    <path fill-rule="evenodd" clip-rule="evenodd" d="M2.91678 7.29248L2.67187 7.42124L2.71864 7.14853L2.52051 6.95539L2.79433 6.9156L2.91678 6.66748L3.03924 6.9156L3.31305 6.95539L3.11492 7.14853L3.16169 7.42124L2.91678 7.29248Z" fill="white"/>
    <path fill-rule="evenodd" clip-rule="evenodd" d="M4.58329 7.29248L4.33837 7.42124L4.38515 7.14853L4.18701 6.95539L4.46083 6.9156L4.58329 6.66748L4.70574 6.9156L4.97956 6.95539L4.78142 7.14853L4.8282 7.42124L4.58329 7.29248Z" fill="white"/>
    <path fill-rule="evenodd" clip-rule="evenodd" d="M6.25003 7.29248L6.00512 7.42124L6.0519 7.14853L5.85376 6.95539L6.12758 6.9156L6.25003 6.66748L6.37249 6.9156L6.64631 6.95539L6.44817 7.14853L6.49494 7.42124L6.25003 7.29248Z" fill="white"/>
    <path fill-rule="evenodd" clip-rule="evenodd" d="M8.75003 6.04248L8.50512 6.17124L8.5519 5.89853L8.35376 5.70539L8.62758 5.6656L8.75003 5.41748L8.87249 5.6656L9.14631 5.70539L8.94817 5.89853L8.99494 6.17124L8.75003 6.04248Z" fill="white"/>
    <path fill-rule="evenodd" clip-rule="evenodd" d="M2.08329 8.54248L1.83837 8.67124L1.88515 8.39853L1.68701 8.20539L1.96083 8.1656L2.08329 7.91748L2.20574 8.1656L2.47956 8.20539L2.28142 8.39853L2.3282 8.67124L2.08329 8.54248Z" fill="white"/>
    <path fill-rule="evenodd" clip-rule="evenodd" d="M3.75003 8.54248L3.50512 8.67124L3.5519 8.39853L3.35376 8.20539L3.62758 8.1656L3.75003 7.91748L3.87249 8.1656L4.14631 8.20539L3.94817 8.39853L3.99494 8.67124L3.75003 8.54248Z" fill="white"/>
    <path fill-rule="evenodd" clip-rule="evenodd" d="M5.41678 8.54248L5.17187 8.67124L5.21864 8.39853L5.02051 8.20539L5.29433 8.1656L5.41678 7.91748L5.53924 8.1656L5.81305 8.20539L5.61492 8.39853L5.66169 8.67124L5.41678 8.54248Z" fill="white"/>
    <path fill-rule="evenodd" clip-rule="evenodd" d="M7.08329 8.54248L6.83837 8.67124L6.88515 8.39853L6.68701 8.20539L6.96083 8.1656L7.08329 7.91748L7.20574 8.1656L7.47956 8.20539L7.28142 8.39853L7.3282 8.67124L7.08329 8.54248Z" fill="white"/>
    <path fill-rule="evenodd" clip-rule="evenodd" d="M7.08329 8.54248L6.83837 8.67124L6.88515 8.39853L6.68701 8.20539L6.96083 8.1656L7.08329 7.91748L7.20574 8.1656L7.47956 8.20539L7.28142 8.39853L7.3282 8.67124L7.08329 8.54248Z" fill="white"/>
    <path fill-rule="evenodd" clip-rule="evenodd" d="M7.91678 9.79248L7.67187 9.92124L7.71864 9.64853L7.52051 9.45539L7.79433 9.4156L7.91678 9.16748L8.03924 9.4156L8.31306 9.45539L8.11492 9.64853L8.16169 9.92124L7.91678 9.79248Z" fill="white"/>
    <path fill-rule="evenodd" clip-rule="evenodd" d="M1.25003 9.79248L1.00512 9.92124L1.0519 9.64853L0.85376 9.45539L1.12758 9.4156L1.25003 9.16748L1.37249 9.4156L1.64631 9.45539L1.44817 9.64853L1.49494 9.92124L1.25003 9.79248Z" fill="white"/>
    <path fill-rule="evenodd" clip-rule="evenodd" d="M2.91678 9.79248L2.67187 9.92124L2.71864 9.64853L2.52051 9.45539L2.79433 9.4156L2.91678 9.16748L3.03924 9.4156L3.31305 9.45539L3.11492 9.64853L3.16169 9.92124L2.91678 9.79248Z" fill="white"/>
    <path fill-rule="evenodd" clip-rule="evenodd" d="M4.58329 9.79248L4.33837 9.92124L4.38515 9.64853L4.18701 9.45539L4.46083 9.4156L4.58329 9.16748L4.70574 9.4156L4.97956 9.45539L4.78142 9.64853L4.8282 9.92124L4.58329 9.79248Z" fill="white"/>
    <path fill-rule="evenodd" clip-rule="evenodd" d="M6.25003 9.79248L6.00512 9.92124L6.0519 9.64853L5.85376 9.45539L6.12758 9.4156L6.25003 9.16748L6.37249 9.4156L6.64631 9.45539L6.44817 9.64853L6.49494 9.92124L6.25003 9.79248Z" fill="white"/>
    <path fill-rule="evenodd" clip-rule="evenodd" d="M8.75003 8.54248L8.50512 8.67124L8.5519 8.39853L8.35376 8.20539L8.62758 8.1656L8.75003 7.91748L8.87249 8.1656L9.14631 8.20539L8.94817 8.39853L8.99494 8.67124L8.75003 8.54248Z" fill="white"/>
</svg>
